<svg width="62" height="19" viewBox="0 0 62 19" fill="none" xmlns="http://www.w3.org/2000/svg">
<path fill-rule="evenodd" clip-rule="evenodd" d="M9.89153 2.72528C9.00705 1.99251 7.67418 1.99251 6.7897 2.72529L3.11788 5.76732C2.61953 6.1802 2.3344 6.77199 2.3344 7.39345V13.583C2.3344 14.7846 3.37955 15.7587 4.6688 15.7587H12.0124C13.3017 15.7587 14.3468 14.7846 14.3468 13.583V7.39345C14.3468 6.77199 14.0617 6.1802 13.5633 5.76732L9.89153 2.72528ZM5.23878 1.09917C7.00774 -0.366386 9.67348 -0.36639 11.4424 1.09916L15.1143 4.1412C16.111 4.96696 16.6812 6.15054 16.6812 7.39345V13.583C16.6812 15.9862 14.5909 17.9344 12.0124 17.9344H4.6688C2.09029 17.9344 0 15.9862 0 13.583V7.39345C0 6.15054 0.570264 4.96696 1.56697 4.1412L5.23878 1.09917Z" fill="#203B3C"/>
<path d="M40.4578 7.1962H42.5594V15.8166H40.4578V14.8326C39.7154 15.624 38.8057 16.0197 37.7288 16.0197C36.5054 16.0197 35.4912 15.5927 34.6861 14.7389C33.8915 13.8746 33.4941 12.802 33.4941 11.5212C33.4941 10.2403 33.8967 9.18338 34.7018 8.35032C35.5069 7.50685 36.5159 7.08511 37.7288 7.08511C38.7953 7.08511 39.7049 7.49644 40.4578 8.31908V7.1962ZM36.38 13.3018C36.8296 13.7808 37.3994 14.0203 38.0895 14.0203C38.7796 14.0203 39.3494 13.7808 39.799 13.3018C40.2591 12.8228 40.4891 12.2397 40.4891 11.5524C40.4891 10.8755 40.2591 10.2976 39.799 9.81859C39.3494 9.33958 38.7796 9.10008 38.0895 9.10008C37.389 9.10008 36.8139 9.33958 36.3643 9.81859C35.9251 10.2976 35.7056 10.8755 35.7056 11.5524C35.7056 12.2397 35.9304 12.8228 36.38 13.3018Z" fill="#203B3C"/>
<path d="M50.9311 4.26074H53.1425V15.8166H50.9782V14.7701C50.2881 15.6032 49.4045 16.0197 48.3276 16.0197C47.1147 16.0197 46.1057 15.598 45.3006 14.7545C44.4955 13.9006 44.093 12.8332 44.093 11.5524C44.093 10.282 44.4955 9.21983 45.3006 8.36594C46.1162 7.51206 47.1252 7.08511 48.3276 7.08511C49.3627 7.08511 50.2306 7.48602 50.9311 8.28784V4.26074ZM46.9474 13.3174C47.397 13.786 47.9721 14.0203 48.6726 14.0203C49.3732 14.0203 49.943 13.786 50.3822 13.3174C50.8213 12.8384 51.0409 12.2501 51.0409 11.5524C51.0409 10.8651 50.8213 10.2872 50.3822 9.81859C49.943 9.33958 49.3732 9.10008 48.6726 9.10008C47.9721 9.10008 47.397 9.33958 46.9474 9.81859C46.5083 10.2872 46.2887 10.8651 46.2887 11.5524C46.2887 12.2501 46.5083 12.8384 46.9474 13.3174Z" fill="#203B3C"/>
<path fill-rule="evenodd" clip-rule="evenodd" d="M30.1274 9.58312C30.0601 9.67511 30.0333 9.81731 30.0387 9.89685V9.9338L30.0413 15.7564H27.8282V10.0032C27.8048 9.52865 27.9137 8.86001 28.3418 8.27494C28.826 7.6134 29.6184 7.19629 30.6743 7.19629H33.2499V9.41058H30.6743C30.4436 9.41058 30.3149 9.45328 30.2503 9.48427C30.1882 9.51403 30.153 9.54819 30.1274 9.58312Z" fill="#203B3C"/>
<path fill-rule="evenodd" clip-rule="evenodd" d="M21.363 13.1863V4.27075H23.5871V13.2427L23.5854 13.2737C23.5855 13.2725 23.585 13.2809 23.5867 13.2969C23.5884 13.3128 23.5917 13.3317 23.5972 13.3515C23.6084 13.3923 23.6245 13.4229 23.6406 13.4436C23.6532 13.4598 23.6741 13.4814 23.7215 13.5031C23.7718 13.5261 23.8817 13.5623 24.0857 13.5623H26.4333V15.7836H24.0857C23.1097 15.7836 22.3575 15.4148 21.8842 14.8064C21.4624 14.2641 21.3454 13.6384 21.363 13.1863Z" fill="#203B3C"/>
<path fill-rule="evenodd" clip-rule="evenodd" d="M26.4067 9.41759H22.501V7.19629H26.4067V9.41759Z" fill="#203B3C"/>
<path d="M57.4327 15.5202L53.751 7.17676H56.1718L58.4162 12.5035L57.4327 15.5202Z" fill="#203B3C"/>
<path d="M61.9991 7.17676H59.8582L56.9686 15.5697C56.7847 16.1607 56.7059 16.1739 56.1937 16.1739H54.8408V18.1572H56.4432C58.4265 18.1572 58.8731 16.2527 58.8731 16.2527L61.9991 7.17676Z" fill="#203B3C"/>
<rect x="4.87305" y="7.24048" width="6.93427" height="2.33927" fill="#203B3C"/>
<rect x="7.15723" y="13.2837" width="5.01272" height="2.33927" transform="rotate(-90 7.15723 13.2837)" fill="#203B3C"/>
</svg>
