<svg width="15" height="14" viewBox="0 0 15 14" fill="none" xmlns="http://www.w3.org/2000/svg">
<path d="M14.1667 9.79338C14.1667 12.22 12.72 13.6667 10.2933 13.6667H9.5C9.13334 13.6667 8.83334 13.3667 8.83334 13V9.15338C8.83334 8.97338 8.98 8.82005 9.16 8.82005L10.3333 8.80005C10.4267 8.79338 10.5067 8.72672 10.5267 8.63338L10.76 7.36005C10.78 7.24005 10.6867 7.12671 10.56 7.12671L9.14 7.14671C8.95333 7.14671 8.80668 7.00005 8.80001 6.82005L8.77334 5.18671C8.77334 5.08004 8.86 4.98671 8.97333 4.98671L10.5733 4.96004C10.6867 4.96004 10.7733 4.87338 10.7733 4.76005L10.7467 3.16003C10.7467 3.0467 10.66 2.96004 10.5467 2.96004L8.74667 2.98671C7.64 3.00671 6.76001 3.91337 6.78001 5.02004L6.81334 6.85337C6.82 7.04004 6.67334 7.18671 6.48668 7.19338L5.68667 7.20671C5.57334 7.20671 5.48668 7.29336 5.48668 7.4067L5.50668 8.67338C5.50668 8.78671 5.59333 8.87337 5.70667 8.87337L6.50668 8.86005C6.69334 8.86005 6.84 9.00671 6.84666 9.18671L6.90666 12.9867C6.91333 13.36 6.61333 13.6667 6.23999 13.6667H4.70667C2.28 13.6667 0.833336 12.22 0.833336 9.7867V4.20671C0.833336 1.78004 2.28 0.333374 4.70667 0.333374H10.2933C12.72 0.333374 14.1667 1.78004 14.1667 4.20671V9.79338Z" fill="#2792F5"/>
</svg>
