<svg width="14" height="16" viewBox="0 0 14 16" fill="none" xmlns="http://www.w3.org/2000/svg">
<path d="M9.49999 14.6667V12C9.59274 11.1649 9.35328 10.3268 8.83332 9.66671C10.8333 9.66671 12.8333 8.33337 12.8333 6.00004C12.8867 5.16671 12.6533 4.34671 12.1667 3.66671C12.3533 2.90004 12.3533 2.10004 12.1667 1.33337C12.1667 1.33337 11.5 1.33337 10.1667 2.33337C8.40666 2.00004 6.59332 2.00004 4.83332 2.33337C3.49999 1.33337 2.83332 1.33337 2.83332 1.33337C2.63332 2.10004 2.63332 2.90004 2.83332 3.66671C2.3479 4.34396 2.1123 5.16856 2.16666 6.00004C2.16666 8.33337 4.16666 9.66671 6.16666 9.66671C5.90666 9.99337 5.71332 10.3667 5.59999 10.7667C5.48666 11.1667 5.45332 11.5867 5.49999 12V14.6667" stroke="#222542" stroke-width="1.5" stroke-linecap="round" stroke-linejoin="round"/>
<path d="M5.5 12.0001C2.49333 13.3334 2.16666 10.6667 0.833328 10.6667" stroke="#222542" stroke-width="1.5" stroke-linecap="round" stroke-linejoin="round"/>
</svg>
