<svg width="15" height="12" viewBox="0 0 15 12" fill="none" xmlns="http://www.w3.org/2000/svg">
<path d="M14.4733 1.99996C13.96 2.23329 13.4067 2.38663 12.8333 2.45996C13.42 2.10663 13.8733 1.54663 14.0867 0.873293C13.5333 1.20663 12.92 1.43996 12.2733 1.57329C11.7467 0.999959 11.0067 0.666626 10.1667 0.666626C8.60001 0.666626 7.32001 1.94663 7.32001 3.52663C7.32001 3.75329 7.34667 3.97329 7.39334 4.17996C5.02001 4.05996 2.90667 2.91996 1.50001 1.19329C1.25334 1.61329 1.11334 2.10663 1.11334 2.62663C1.11334 3.61996 1.61334 4.49996 2.38667 4.99996C1.91334 4.99996 1.47334 4.86663 1.08667 4.66663V4.68663C1.08667 6.07329 2.07334 7.23329 3.38001 7.49329C2.96049 7.6081 2.52007 7.62407 2.09334 7.53996C2.27441 8.10828 2.62903 8.60556 3.10735 8.96191C3.58567 9.31826 4.16364 9.51575 4.76001 9.52663C3.74909 10.3269 2.496 10.7595 1.20667 10.7533C0.980006 10.7533 0.753339 10.74 0.526672 10.7133C1.79334 11.5266 3.30001 12 4.91334 12C10.1667 12 13.0533 7.63996 13.0533 3.85996C13.0533 3.73329 13.0533 3.61329 13.0467 3.48663C13.6067 3.08663 14.0867 2.57996 14.4733 1.99996Z" fill="#1FA3DC"/>
</svg>
